<svg width="3710" height="3710" viewBox="0 0 3710 3710" fill="none" xmlns="http://www.w3.org/2000/svg">
<g clip-path="url(#clip0_4_3)">
<path d="M3110.76 2329.8C2828.9 2988.61 2084.89 3271.59 1501.94 3223.34C1342.77 3210.17 1022.53 3183.66 772.472 2947.19C292.261 2493.07 366.218 1543.84 825.918 984.977C885.118 913.008 1294.89 430.82 1933.44 437.274C2400.96 442 2729.1 706.092 2769 738.993C2819.41 780.556 2930.58 879.322 3030.78 1036.01C3266.2 1404.16 3286.89 1918.11 3110.76 2329.8Z" fill="url(#paint0_linear_4_3)"/>
<g opacity="0.3">
<path d="M898.973 1031.15C893.954 1029.53 890.868 1024.34 891.983 1019.07C894.418 1007.54 897.393 995.935 900.82 984.593C902.488 979.075 908.312 975.952 913.829 977.619C913.895 977.64 913.959 977.661 914.023 977.682C919.419 979.425 922.449 985.177 920.801 990.629C917.544 1001.41 914.72 1012.42 912.405 1023.38C911.215 1029.02 905.677 1032.63 900.037 1031.44C899.673 1031.36 899.319 1031.26 898.973 1031.15ZM927.567 944.846C927.179 944.721 926.793 944.57 926.412 944.396C921.174 941.992 918.875 935.796 921.278 930.557C926.218 919.798 931.666 909.143 937.472 898.891C940.312 893.875 946.653 892.116 951.697 894.949C956.712 897.79 958.473 904.16 955.635 909.172C950.117 918.918 944.942 929.039 940.25 939.266C938.02 944.124 932.531 946.45 927.567 944.846ZM974.453 866.984C973.348 866.627 972.283 866.077 971.308 865.33C966.738 861.818 965.876 855.268 969.385 850.696C976.578 841.324 984.27 832.148 992.247 823.425C996.14 819.173 1002.74 818.885 1006.99 822.765C1011.24 826.654 1011.54 833.257 1007.65 837.51C1000.07 845.794 992.773 854.505 985.941 863.406C983.18 867.002 978.534 868.303 974.453 866.984ZM1037.59 801.548C1035.76 800.958 1034.07 799.856 1032.76 798.266C1029.09 793.824 1029.71 787.245 1034.16 783.573C1043.27 776.044 1052.82 768.818 1062.54 762.096C1067.28 758.825 1073.78 760.008 1077.06 764.744C1080.34 769.483 1079.15 775.984 1074.41 779.264C1065.18 785.647 1056.11 792.509 1047.45 799.667C1044.6 802.023 1040.86 802.607 1037.59 801.548ZM1113.72 751.833C1111.16 751.005 1108.92 749.192 1107.61 746.598C1105.02 741.45 1107.09 735.174 1112.24 732.583C1122.77 727.277 1133.68 722.345 1144.66 717.933C1150 715.779 1156.08 718.369 1158.23 723.721C1160.38 729.068 1157.79 735.146 1152.44 737.299C1142 741.492 1131.64 746.179 1121.63 751.222C1119.07 752.508 1116.24 752.648 1113.72 751.833ZM1198.96 720.202C1195.64 719.13 1192.93 716.421 1192.03 712.788C1190.64 707.193 1194.04 701.534 1199.64 700.141C1211.1 697.29 1222.83 694.894 1234.5 693.027C1240.19 692.116 1245.54 695.992 1246.45 701.684C1247.36 707.372 1243.49 712.726 1237.8 713.638C1226.71 715.414 1215.57 717.688 1204.67 720.397C1202.71 720.885 1200.75 720.781 1198.96 720.202ZM1570.49 814.141C1569.11 813.697 1567.81 812.959 1566.67 811.923C1558.39 804.37 1549.66 797.077 1540.73 790.251C1536.15 786.75 1535.28 780.2 1538.78 775.625C1542.28 771.045 1548.83 770.171 1553.41 773.673C1562.81 780.863 1572.01 788.542 1580.73 796.494C1584.99 800.377 1585.3 806.979 1581.42 811.238C1578.57 814.363 1574.26 815.361 1570.49 814.141ZM1289.02 708.254C1284.9 706.923 1281.89 703.095 1281.8 698.525C1281.69 692.761 1286.27 687.999 1292.03 687.886C1303.84 687.654 1315.8 687.934 1327.59 688.718C1333.34 689.127 1337.7 694.07 1337.31 699.823C1336.93 705.573 1331.96 709.926 1326.21 709.545C1315.01 708.799 1303.65 708.533 1292.43 708.752C1291.24 708.775 1290.09 708.601 1289.02 708.254ZM1496.82 760.871C1496.16 760.659 1495.52 760.382 1494.89 760.031C1485.12 754.521 1474.98 749.363 1464.75 744.693C1459.51 742.296 1457.2 736.105 1459.6 730.864C1461.99 725.623 1468.19 723.286 1473.42 725.706C1484.18 730.622 1494.86 736.05 1505.14 741.844C1510.16 744.675 1511.94 751.041 1509.11 756.06C1506.63 760.457 1501.44 762.365 1496.82 760.871ZM1379.5 716.724C1374.49 715.105 1371.4 709.93 1372.5 704.662C1373.68 699.02 1379.21 695.404 1384.86 696.581C1396.41 698.998 1408.01 701.946 1419.34 705.349C1419.41 705.367 1419.48 705.391 1419.55 705.413C1424.94 707.154 1427.97 712.893 1426.33 718.341C1424.67 723.863 1418.86 726.996 1413.34 725.336C1402.57 722.107 1391.55 719.308 1380.58 717.013C1380.21 716.934 1379.85 716.838 1379.5 716.724Z" fill="#91B3FA"/>
<path d="M1619.96 868.201C1618.01 867.569 1616.22 866.357 1614.88 864.596C1611.62 860.313 1608.22 856.03 1604.77 851.857C1601.09 847.418 1601.71 840.837 1606.15 837.165C1610.59 833.489 1617.18 834.104 1620.85 838.554C1624.48 842.94 1628.06 847.447 1631.49 851.952C1634.98 856.537 1634.09 863.088 1629.5 866.576C1626.68 868.729 1623.11 869.216 1619.96 868.201Z" fill="#91B3FA"/>
</g>
<g opacity="0.3">
<path d="M1698.51 1176.53C1693.72 1174.98 1690.62 1170.14 1691.41 1165C1692.24 1159.69 1692.97 1154.26 1693.57 1148.89C1694.22 1143.16 1699.39 1139.04 1705.11 1139.69C1710.86 1140.34 1714.96 1145.5 1714.31 1151.23C1713.67 1156.89 1712.91 1162.6 1712.04 1168.2C1711.16 1173.89 1705.83 1177.8 1700.13 1176.92C1699.57 1176.83 1699.03 1176.7 1698.51 1176.53Z" fill="#91B3FA"/>
<path d="M1172.21 1501.52C1167.64 1500.04 1163.08 1498.48 1158.52 1496.84C1153.1 1494.88 1150.29 1488.9 1152.25 1483.48C1154.2 1478.06 1160.22 1475.23 1165.6 1477.2C1176.11 1480.99 1186.75 1484.34 1197.34 1487.2C1202.91 1488.71 1206.2 1494.43 1204.7 1499.99C1203.2 1505.56 1197.47 1508.86 1191.91 1507.35C1185.35 1505.59 1178.73 1503.62 1172.21 1501.52ZM1108.09 1474.64C1107.54 1474.46 1106.99 1474.23 1106.45 1473.96C1096.13 1468.56 1085.93 1462.67 1076.12 1456.44C1071.26 1453.35 1069.82 1446.9 1072.91 1442.04C1076 1437.17 1082.46 1435.72 1087.31 1438.82C1096.63 1444.74 1106.32 1450.33 1116.13 1455.46C1121.23 1458.13 1123.21 1464.44 1120.54 1469.54C1118.15 1474.12 1112.84 1476.18 1108.09 1474.64ZM1245.8 1517.95C1241.11 1516.43 1238.02 1511.76 1238.66 1506.71C1239.39 1500.99 1244.61 1496.94 1250.33 1497.67C1261.27 1499.06 1272.42 1500 1283.47 1500.46C1289.22 1500.71 1293.7 1505.57 1293.46 1511.32C1293.21 1517.08 1288.35 1521.56 1282.59 1521.32C1270.96 1520.83 1259.22 1519.84 1247.7 1518.37C1247.04 1518.29 1246.4 1518.14 1245.8 1517.95ZM1033.84 1424.69C1032.58 1424.29 1031.38 1423.63 1030.31 1422.72C1021.43 1415.19 1012.77 1407.2 1004.57 1398.96C1000.51 1394.87 1000.52 1388.27 1004.61 1384.2C1008.7 1380.14 1015.3 1380.15 1019.37 1384.24C1027.15 1392.06 1035.38 1399.66 1043.8 1406.8C1048.2 1410.52 1048.74 1417.11 1045.01 1421.51C1042.2 1424.83 1037.74 1425.95 1033.84 1424.69ZM1335.2 1519.33C1331.36 1518.09 1328.42 1514.67 1328.02 1510.39C1327.47 1504.65 1331.67 1499.56 1337.41 1499.01C1348.38 1497.96 1359.46 1496.42 1370.34 1494.45C1376.02 1493.42 1381.45 1497.18 1382.48 1502.86C1383.5 1508.53 1379.74 1513.95 1374.07 1514.98C1362.61 1517.06 1350.95 1518.68 1339.4 1519.79C1337.94 1519.92 1336.51 1519.76 1335.2 1519.33ZM1422.74 1501.06C1419.67 1500.07 1417.1 1497.67 1416.02 1494.37C1414.23 1488.89 1417.22 1483 1422.7 1481.21C1433.21 1477.78 1443.7 1473.86 1453.87 1469.57C1459.17 1467.32 1465.29 1469.81 1467.54 1475.13C1469.78 1480.44 1467.29 1486.56 1461.98 1488.8C1451.28 1493.32 1440.24 1497.44 1429.19 1501.05C1427.01 1501.76 1424.77 1501.72 1422.74 1501.06ZM1504.22 1464.15C1501.89 1463.39 1499.81 1461.82 1498.46 1459.54C1495.52 1454.58 1497.15 1448.18 1502.11 1445.24C1511.63 1439.6 1521.01 1433.49 1530 1427.09C1534.69 1423.75 1541.21 1424.84 1544.55 1429.54C1547.89 1434.24 1546.8 1440.75 1542.1 1444.1C1532.65 1450.83 1522.77 1457.26 1512.76 1463.19C1510.08 1464.78 1506.97 1465.03 1504.22 1464.15ZM1575.71 1410.34C1574.09 1409.82 1572.58 1408.89 1571.33 1407.57C1567.38 1403.37 1567.57 1396.77 1571.77 1392.82C1579.82 1385.23 1587.63 1377.22 1594.99 1369C1598.84 1364.71 1605.44 1364.35 1609.73 1368.19C1614.02 1372.04 1614.39 1378.64 1610.54 1382.93C1602.78 1391.59 1594.55 1400.02 1586.08 1408.01C1583.21 1410.71 1579.21 1411.47 1575.71 1410.34ZM1633.66 1342.13C1632.75 1341.83 1631.86 1341.41 1631.03 1340.85C1626.25 1337.63 1624.99 1331.14 1628.21 1326.36C1634.37 1317.21 1640.22 1307.69 1645.61 1298.03C1648.41 1292.99 1654.78 1291.2 1659.8 1294C1664.84 1296.8 1666.64 1303.16 1663.84 1308.19C1658.17 1318.36 1652.01 1328.39 1645.52 1338.02C1642.86 1341.97 1637.97 1343.52 1633.66 1342.13ZM1675.18 1262.9C1674.97 1262.84 1674.77 1262.76 1674.57 1262.69C1669.2 1260.58 1666.56 1254.53 1668.66 1249.16C1671.63 1241.59 1674.4 1233.83 1676.89 1226.11C1677.8 1223.31 1678.67 1220.51 1679.51 1217.71C1681.16 1212.18 1686.98 1209.05 1692.5 1210.7C1698.12 1212.26 1701.15 1218.17 1699.5 1223.69C1698.62 1226.64 1697.71 1229.58 1696.75 1232.52C1694.13 1240.65 1691.21 1248.81 1688.09 1256.78C1686.07 1261.94 1680.38 1264.59 1675.18 1262.9Z" fill="#91B3FA"/>
<path d="M972.266 1359.41C970.291 1358.78 968.489 1357.55 967.146 1355.77C963.746 1351.26 960.378 1346.59 957.134 1341.89C953.858 1337.14 955.047 1330.64 959.79 1327.37C964.534 1324.1 971.03 1325.28 974.308 1330.03C977.39 1334.49 980.59 1338.92 983.817 1343.21C987.285 1347.81 986.366 1354.35 981.762 1357.82C978.939 1359.95 975.388 1360.42 972.266 1359.41Z" fill="#91B3FA"/>
</g>
<path d="M1022.88 1248.56C1023.64 1250.5 1025.54 1251.75 1027.62 1251.66L1086.94 1249.3C1102.64 1272.15 1122.1 1292.66 1144.92 1309.78L1140.09 1368.91C1139.92 1370.98 1141.09 1372.94 1142.99 1373.77L1208.2 1402.38C1210.11 1403.22 1212.33 1402.75 1213.74 1401.23L1253.99 1357.64C1282.04 1362.84 1310.31 1363.27 1337.76 1359.35L1376.18 1404.6C1377.53 1406.19 1379.73 1406.75 1381.67 1405.99L1448.01 1380.11C1449.95 1379.36 1451.2 1377.45 1451.11 1375.38L1448.75 1316.06C1471.6 1300.36 1492.11 1280.9 1509.23 1258.08L1568.36 1262.9C1570.43 1263.07 1572.39 1261.91 1573.22 1260L1601.84 1194.79C1602.67 1192.89 1602.21 1190.66 1600.68 1189.25L1557.09 1149.01C1562.29 1120.95 1562.72 1092.68 1558.8 1065.24L1604.06 1026.81C1605.64 1025.47 1606.2 1023.26 1605.44 1021.33L1579.56 954.985C1578.81 953.045 1576.91 951.801 1574.83 951.883L1515.51 954.249C1499.81 931.398 1480.35 910.887 1457.53 893.767L1462.36 834.635C1462.52 832.561 1461.36 830.609 1459.45 829.772L1394.25 801.161C1392.34 800.324 1390.12 800.789 1388.7 802.319L1348.46 845.908C1320.41 840.704 1292.14 840.275 1264.69 844.195L1226.27 798.942C1224.92 797.355 1222.72 796.798 1220.78 797.554L1154.44 823.431C1152.5 824.187 1151.25 826.09 1151.33 828.169L1153.7 887.487C1130.85 903.186 1110.34 922.643 1093.22 945.466L1034.09 940.64C1032.01 940.47 1030.06 941.636 1029.22 943.542L1000.61 1008.75C999.777 1010.65 1000.24 1012.88 1001.77 1014.29L1045.36 1054.54C1040.16 1082.59 1039.73 1110.86 1043.65 1138.3L998.393 1176.73C996.806 1178.08 996.25 1180.28 997.005 1182.22L1022.88 1248.56Z" fill="#91B3FA"/>
<path d="M1279.17 1169.87C1245.97 1159.15 1224.7 1125.35 1230.63 1089.93C1237.17 1051.01 1274.14 1024.65 1313.07 1031.18C1331.93 1034.34 1348.42 1044.66 1359.51 1060.23C1370.61 1075.8 1374.98 1094.76 1371.82 1113.61C1365.29 1152.54 1328.31 1178.89 1289.38 1172.36C1285.87 1171.78 1282.46 1170.94 1279.17 1169.87ZM1318.21 1049.58C1315.65 1048.75 1313.01 1048.11 1310.3 1047.65C1280.46 1042.64 1252.11 1062.85 1247.1 1092.69C1242.1 1122.54 1262.29 1150.9 1292.15 1155.9C1321.99 1160.91 1350.34 1140.7 1355.35 1110.85C1357.77 1096.39 1354.42 1081.86 1345.92 1069.92C1339 1060.22 1329.35 1053.18 1318.21 1049.58Z" fill="#BDD0FB"/>
<path d="M1248.78 1268.7C1243.07 1266.86 1237.43 1264.72 1231.87 1262.28C1230.12 1261.51 1228.38 1260.71 1226.65 1259.89C1218.15 1255.82 1209.97 1251.09 1202.27 1245.76C1202.16 1245.68 1202.06 1245.61 1201.95 1245.54C1201.65 1245.33 1201.36 1245.12 1201.06 1244.91C1200.48 1244.51 1199.91 1244.1 1199.34 1243.69C1197.83 1242.6 1197.27 1240.7 1197.81 1239.02C1197.94 1238.62 1198.14 1238.22 1198.4 1237.86C1199.75 1235.99 1202.36 1235.57 1204.23 1236.92C1213.84 1243.87 1224.27 1249.83 1235.22 1254.63C1289.62 1278.51 1349.98 1271.07 1396.03 1240.25C1421.64 1223.11 1442.83 1198.73 1456.11 1168.47C1458.43 1163.17 1460.48 1157.78 1462.23 1152.34C1474.06 1115.74 1472.94 1076.51 1458.77 1040.19C1442.5 998.47 1410.95 965.584 1369.95 947.592C1285.26 910.441 1186.21 949.102 1149.07 1033.75C1146.78 1038.97 1144.76 1044.28 1143.02 1049.67C1135.48 1073.02 1133.13 1097.76 1136.23 1122.13C1136.31 1122.76 1136.25 1123.37 1136.06 1123.94C1135.58 1125.43 1134.28 1126.58 1132.62 1126.79C1130.33 1127.08 1128.24 1125.47 1127.95 1123.18C1124.7 1097.6 1127.16 1071.62 1135.07 1047.11C1136.9 1041.46 1139.02 1035.88 1141.42 1030.4C1180.41 941.524 1284.46 900.965 1373.3 939.945C1416.35 958.834 1449.47 993.358 1466.55 1037.16C1481.43 1075.28 1482.6 1116.47 1470.19 1154.9C1468.34 1160.61 1466.2 1166.26 1463.75 1171.83C1444.86 1214.88 1410.34 1248 1366.54 1265.08C1328.41 1279.95 1287.21 1281.12 1248.78 1268.7Z" fill="#BDD0FB"/>
<g opacity="0.3">
<path d="M475.529 1183.35C472.876 1182.49 470.991 1179.97 471.071 1177.04C471.218 1171.57 471.533 1166.03 472.009 1160.57C472.318 1157.03 475.441 1154.41 478.99 1154.71C482.543 1155.01 485.16 1158.15 484.851 1161.69C484.398 1166.89 484.097 1172.17 483.955 1177.39C483.861 1180.95 480.897 1183.75 477.338 1183.66C476.707 1183.64 476.101 1183.53 475.529 1183.35Z" fill="#91B3FA"/>
<path d="M481.412 1134.11C478.304 1133.11 476.399 1129.89 477.098 1126.64C479.069 1117.42 481.538 1108.2 484.433 1099.24C485.043 1097.36 485.676 1095.47 486.328 1093.59C487.498 1090.22 491.307 1088.63 494.532 1089.6C497.896 1090.77 499.676 1094.44 498.514 1097.8C497.889 1099.6 497.283 1101.41 496.7 1103.21C493.938 1111.76 491.584 1120.55 489.701 1129.33C488.956 1132.82 485.532 1135.03 482.05 1134.29C481.833 1134.24 481.619 1134.18 481.412 1134.11ZM503.333 1070.88C503.043 1070.79 502.752 1070.67 502.472 1070.54C499.274 1068.97 497.952 1065.11 499.518 1061.91C504.54 1051.65 510.244 1041.61 516.469 1032.08C518.415 1029.1 522.422 1028.28 525.39 1030.21C528.372 1032.16 529.21 1036.14 527.264 1039.13C521.325 1048.22 515.886 1057.8 511.095 1067.58C509.667 1070.49 506.335 1071.85 503.333 1070.88ZM539.934 1014.85C539.156 1014.6 538.414 1014.19 537.75 1013.63C535.034 1011.33 534.702 1007.26 537.002 1004.55C544.377 995.85 552.376 987.514 560.781 979.785C563.403 977.371 567.47 977.541 569.889 980.168C572.298 982.785 572.127 986.865 569.51 989.273C561.495 996.646 553.869 1004.59 546.838 1012.89C545.096 1014.94 542.345 1015.63 539.934 1014.85ZM589.192 969.529C587.922 969.119 586.771 968.311 585.934 967.146C583.867 964.249 584.537 960.219 587.434 958.151C596.734 951.512 606.523 945.394 616.539 939.964C619.67 938.27 623.581 939.441 625.275 942.562C626.973 945.69 625.812 949.601 622.679 951.302C613.133 956.473 603.791 962.312 594.926 968.642C593.197 969.878 591.069 970.136 589.192 969.529ZM648.022 937.616C646.249 937.043 644.736 935.707 644.001 933.836C642.7 930.525 644.332 926.786 647.644 925.481C658.266 921.312 669.245 917.755 680.277 914.917C683.729 914.021 687.24 916.102 688.127 919.551C689.014 923 686.938 926.516 683.494 927.4C672.967 930.111 662.494 933.501 652.36 937.483C650.915 938.048 649.391 938.058 648.022 937.616ZM712.807 920.95C710.51 920.208 708.726 918.195 708.394 915.64C707.937 912.112 710.429 908.882 713.958 908.422C725.273 906.958 736.788 906.187 748.176 906.136C751.746 906.132 754.634 908.997 754.652 912.555C754.67 916.113 751.794 919.014 748.237 919.029C737.375 919.078 726.402 919.812 715.615 921.209C714.637 921.336 713.685 921.234 712.807 920.95ZM779.683 920.63C776.808 919.701 774.897 916.842 775.27 913.734C775.694 910.2 778.903 907.678 782.439 908.099C793.731 909.452 805.084 911.534 816.19 914.281C819.638 915.197 821.754 918.639 820.896 922.092C820.041 925.547 816.546 927.653 813.091 926.8C802.499 924.171 791.67 922.188 780.904 920.898C780.48 920.848 780.073 920.755 779.683 920.63ZM875.162 950.621C874.809 950.507 874.456 950.36 874.115 950.177C865.816 945.769 857.129 941.738 848.295 938.196C846.96 937.652 845.642 937.134 844.322 936.634C840.996 935.361 839.327 931.64 840.597 928.313C841.864 924.978 845.646 923.223 848.916 924.584C850.322 925.124 851.724 925.67 853.124 926.241C862.353 929.944 871.459 934.17 880.162 938.795C883.307 940.466 884.501 944.365 882.83 947.509C881.342 950.31 878.082 951.565 875.162 950.621Z" fill="#91B3FA"/>
</g>
<g opacity="0.3">
<path d="M667.442 1450.65C664.094 1449.56 662.227 1445.98 663.268 1442.61C664.317 1439.21 667.927 1437.3 671.328 1438.35C681.568 1441.52 692.087 1444.08 702.595 1445.98C706.07 1446.64 708.43 1449.96 707.796 1453.47C707.163 1456.97 703.809 1459.3 700.308 1458.67C689.289 1456.67 678.26 1453.99 667.526 1450.67C667.499 1450.67 667.469 1450.66 667.442 1450.65ZM636.576 1439.04C636.354 1438.97 636.14 1438.88 635.923 1438.79C625.674 1434.22 615.599 1428.98 605.977 1423.22C602.924 1421.39 601.93 1417.43 603.76 1414.38C605.589 1411.32 609.561 1410.35 612.602 1412.16C621.783 1417.66 631.397 1422.65 641.176 1427.02C644.426 1428.46 645.887 1432.28 644.437 1435.53C643.079 1438.57 639.667 1440.04 636.576 1439.04ZM732.214 1462.31C729.494 1461.44 727.597 1458.81 727.763 1455.82C727.96 1452.27 731 1449.55 734.555 1449.75C745.263 1450.34 756.093 1450.28 766.752 1449.58C770.312 1449.36 773.373 1452.04 773.604 1455.59C773.84 1459.14 771.147 1462.21 767.595 1462.45C756.422 1463.18 745.066 1463.24 733.844 1462.62C733.274 1462.58 732.729 1462.48 732.214 1462.31ZM580.103 1405.17C579.406 1404.94 578.735 1404.59 578.121 1404.12C569.265 1397.21 560.747 1389.69 552.808 1381.76C550.287 1379.25 550.286 1375.16 552.801 1372.64C555.312 1370.13 559.394 1370.13 561.915 1372.64C569.487 1380.2 577.607 1387.37 586.05 1393.95C588.855 1396.14 589.358 1400.19 587.169 1403C585.457 1405.19 582.607 1405.98 580.103 1405.17ZM797.881 1457.98C795.71 1457.28 793.978 1455.44 793.525 1453.05C792.86 1449.54 795.16 1446.17 798.656 1445.51C809.165 1443.52 819.661 1440.86 829.858 1437.61C833.255 1436.52 836.878 1438.4 837.958 1441.8C839.038 1445.19 837.165 1448.82 833.773 1449.9C823.081 1453.3 812.076 1456.09 801.058 1458.18C799.959 1458.39 798.872 1458.3 797.881 1457.98ZM860.593 1438.02C858.931 1437.48 857.494 1436.27 856.71 1434.57C855.229 1431.33 856.651 1427.5 859.888 1426.02C869.638 1421.56 879.203 1416.46 888.311 1410.89C891.351 1409.03 895.321 1409.98 897.175 1413.02C899.035 1416.05 898.081 1420.02 895.047 1421.88C885.496 1427.73 875.472 1433.07 865.255 1437.74C863.73 1438.44 862.072 1438.49 860.593 1438.02ZM916.721 1403.6C915.553 1403.23 914.479 1402.51 913.661 1401.48C911.445 1398.69 911.913 1394.63 914.702 1392.42C923.102 1385.76 931.163 1378.52 938.66 1370.91C941.157 1368.38 945.24 1368.34 947.773 1370.84C950.309 1373.34 950.341 1377.42 947.84 1379.96C939.977 1387.94 931.523 1395.53 922.715 1402.52C920.96 1403.91 918.704 1404.24 916.721 1403.6Z" fill="#91B3FA"/>
<path d="M533.305 1358.42C532.122 1358.04 531.037 1357.31 530.213 1356.25C526.815 1351.91 523.532 1347.44 520.449 1342.98C518.428 1340.05 519.161 1336.03 522.09 1334.01C525.019 1332 529.031 1332.73 531.059 1335.65C533.996 1339.91 537.131 1344.17 540.371 1348.32C542.564 1351.12 542.064 1355.18 539.26 1357.37C537.51 1358.73 535.273 1359.05 533.305 1358.42Z" fill="#91B3FA"/>
</g>
<path d="M564.007 1280.83C564.513 1282.13 565.786 1282.96 567.177 1282.9L606.87 1281.32C617.375 1296.61 630.394 1310.34 645.667 1321.79L642.438 1361.36C642.324 1362.75 643.104 1364.05 644.379 1364.61L688.013 1383.76C689.289 1384.32 690.778 1384.01 691.723 1382.99L718.653 1353.82C737.425 1357.3 756.34 1357.59 774.705 1354.96L800.417 1385.25C801.319 1386.31 802.794 1386.68 804.091 1386.17L848.483 1368.86C849.781 1368.35 850.614 1367.08 850.558 1365.69L848.975 1325.99C864.266 1315.49 877.991 1302.47 889.447 1287.2L929.015 1290.43C930.403 1290.54 931.709 1289.76 932.269 1288.48L951.415 1244.85C951.975 1243.57 951.664 1242.09 950.64 1241.14L921.472 1214.21C924.954 1195.44 925.241 1176.52 922.618 1158.16L952.9 1132.45C953.961 1131.54 954.334 1130.07 953.828 1128.77L936.512 1084.38C936.007 1083.08 934.733 1082.25 933.342 1082.31L893.648 1083.89C883.144 1068.6 870.124 1054.87 854.851 1043.42L858.08 1003.85C858.193 1002.46 857.414 1001.15 856.139 1000.59L812.505 981.449C811.23 980.889 809.741 981.201 808.796 982.224L781.866 1011.39C763.094 1007.91 744.178 1007.62 725.813 1010.25L700.102 979.965C699.201 978.903 697.725 978.53 696.428 979.036L652.036 996.352C650.739 996.858 649.905 998.131 649.961 999.523L651.543 1039.22C636.252 1049.72 622.527 1062.74 611.071 1078.01L571.503 1074.78C570.116 1074.67 568.809 1075.45 568.25 1076.72L549.104 1120.36C548.545 1121.63 548.856 1123.12 549.879 1124.07L579.047 1151C575.566 1169.77 575.278 1188.69 577.901 1207.05L547.62 1232.76C546.558 1233.66 546.186 1235.14 546.692 1236.44L564.007 1280.83Z" fill="#91B3FA"/>
<path d="M735.169 1228.98C725.275 1225.78 716.699 1219.52 710.554 1210.9C702.996 1200.3 700.022 1187.38 702.178 1174.54C706.622 1148.03 731.808 1130.08 758.324 1134.52C784.865 1139.02 802.791 1164.16 798.343 1190.67C796.19 1203.52 789.162 1214.76 778.558 1222.31C767.952 1229.87 755.037 1232.85 742.19 1230.69C739.791 1230.28 737.443 1229.71 735.169 1228.98ZM761.308 1148.48C759.657 1147.95 757.951 1147.53 756.191 1147.23C736.687 1143.97 718.161 1157.17 714.89 1176.67C713.307 1186.12 715.492 1195.62 721.052 1203.42C726.614 1211.22 734.88 1216.38 744.326 1217.98C753.773 1219.56 763.275 1217.37 771.074 1211.81C778.878 1206.25 784.046 1197.99 785.631 1188.54C788.608 1170.8 777.944 1153.86 761.308 1148.48Z" fill="#BDD0FB"/>
<path d="M713.924 1297.74C710.043 1296.48 706.195 1295.02 702.382 1293.35C694.812 1290.03 687.571 1285.94 680.846 1281.17C680.545 1280.96 680.245 1280.74 679.944 1280.52C677.621 1278.85 676.747 1275.91 677.58 1273.32C677.783 1272.69 678.089 1272.08 678.496 1271.52C680.58 1268.64 684.607 1268.01 687.493 1270.08C693.73 1274.59 700.481 1278.44 707.557 1281.54L707.56 1281.54C707.948 1281.71 708.34 1281.88 708.727 1282.04C725.539 1289.23 743.506 1291.95 761.237 1290.27C770.862 1289.36 780.423 1287.14 789.693 1283.62C789.769 1283.6 789.844 1283.57 789.919 1283.54C790.15 1283.45 790.38 1283.36 790.608 1283.27C817.615 1272.73 838.906 1252.31 850.553 1225.77C852.063 1222.33 853.384 1218.85 854.522 1215.33C862.175 1191.63 861.451 1166.23 852.281 1142.72C841.744 1115.71 821.321 1094.43 794.778 1082.78C768.245 1071.15 738.738 1070.52 711.729 1081.05C684.722 1091.59 663.431 1112.01 651.784 1138.55C650.299 1141.93 648.995 1145.37 647.869 1148.86C642.987 1163.98 641.467 1179.99 643.476 1195.76C643.599 1196.73 643.501 1197.68 643.216 1198.56C642.473 1200.86 640.456 1202.65 637.897 1202.97C634.365 1203.41 631.138 1200.93 630.688 1197.39C628.442 1179.74 630.141 1161.82 635.599 1144.91C636.861 1141 638.319 1137.15 639.977 1133.38C653.011 1103.67 676.829 1080.83 707.048 1069.04C737.262 1057.26 770.251 1057.91 799.957 1070.97C829.658 1084 852.505 1107.82 864.289 1138.04C874.553 1164.34 875.36 1192.76 866.797 1219.27C865.525 1223.2 864.047 1227.11 862.362 1230.95C837.128 1288.45 772.437 1316.64 713.924 1297.74Z" fill="#BDD0FB"/>
<path d="M2832.87 613.907C2830.49 602.659 2813.08 602.625 2807.68 613.803C2752.86 727.306 2641.13 1042.54 2870.96 1393.58C3159.32 1834.02 3126.45 2059.65 3034.17 2231.25C3034.17 2231.25 3205.49 2090.41 3245.76 1858.2C3344.63 1288.07 2875.24 813.899 2832.87 613.907Z" fill="#BDD0FB"/>
<path d="M2834.72 792.948C2848.33 850.674 2863.22 907.995 2880.46 964.497C2897.36 1021.11 2916.21 1077.02 2937.03 1132.13C2958.08 1187.13 2980.32 1241.64 3005.19 1294.94C3029.78 1348.37 3056.99 1400.51 3084.53 1452.75C3111.72 1505.14 3139.45 1557.74 3160.99 1613.71C3182.55 1669.54 3196.8 1729.38 3198.26 1791.08C3198.6 1806.47 3198.64 1821.95 3197.67 1837.38C3197.01 1852.8 3195.6 1868.28 3193.88 1883.76C3190.29 1914.73 3184.44 1945.77 3176.13 1976.53C3159.33 2038.04 3132.49 2098.21 3098.25 2154.56C3094.64 2160.49 3086.74 2163.17 3080.6 2160.53C3074.57 2157.95 3072.47 2151.21 3075.81 2145.35L3075.84 2145.31C3083.76 2131.43 3091.52 2117.51 3098.59 2103.38C3102.25 2096.36 3105.58 2089.24 3109.04 2082.16C3112.22 2075 3115.7 2067.92 3118.64 2060.7C3130.92 2031.97 3141.06 2002.71 3148.84 1973.16C3164.7 1914.15 3171.17 1853.67 3169.89 1794.71C3168.89 1765.27 3165.48 1736.19 3159.58 1707.71C3153.66 1679.24 3145.25 1651.38 3135.04 1624.12C3114.59 1569.57 3087.64 1517.26 3060.9 1464.65C3034.23 1412 3007.85 1358.87 2984.04 1304.59C2972.06 1277.49 2960.64 1250.14 2949.79 1222.56C2944.28 1208.81 2939.07 1194.93 2933.83 1181.07C2928.75 1167.14 2923.75 1153.19 2918.89 1139.18C2899.55 1083.12 2882.18 1026.34 2866.87 968.942C2851.88 911.444 2838.63 853.426 2827.92 794.785C2827.62 793.108 2828.9 791.369 2830.78 790.898C2832.61 790.444 2834.34 791.36 2834.72 792.948Z" fill="white"/>
<path d="M2876.1 1502.58C2890.49 1512.43 2910.26 1504.39 2913.9 1487.34C2934.02 1393.27 2966.85 1122.16 2758.64 863.452C2582.81 644.989 2508.23 509.82 2478.62 446.113C2472.36 432.642 2452.54 434.992 2449.58 449.548C2416.88 610.146 2354.84 1145.69 2876.1 1502.58Z" fill="#91B3FA"/>
<path d="M2895.35 1488.92C2895.78 1488.9 2896.22 1488.84 2896.66 1488.74C2900.32 1487.88 2902.59 1484.22 2901.73 1480.56C2900.76 1476.41 2801.94 1062.03 2571.19 747.229C2568.97 744.2 2564.71 743.543 2561.68 745.763C2558.64 747.987 2557.99 752.245 2560.21 755.279C2789.29 1067.79 2887.51 1479.54 2888.48 1483.67C2889.23 1486.89 2892.16 1489.04 2895.35 1488.92Z" fill="white"/>
<path d="M956.607 2144.78C1090.36 2144.78 1198.78 2036.36 1198.78 1902.61C1198.78 1768.86 1090.36 1660.44 956.607 1660.44C822.857 1660.44 714.432 1768.86 714.432 1902.61C714.432 2036.36 822.857 2144.78 956.607 2144.78Z" fill="url(#paint1_linear_4_3)"/>
<path d="M3239 2929.52C3239 2957.02 3216.67 2979.51 3189.38 2979.51H506.067C478.776 2979.51 456.446 2957.02 456.446 2929.52L434.118 1374.44C434.118 1346.94 466.241 1293.26 525.113 1297.3L3147.54 1228.87C3181.78 1227.97 3214.89 1241.26 3239.14 1265.64C3263.39 1290.01 3276.65 1323.34 3275.85 1357.84L3239 2929.52Z" fill="url(#paint2_linear_4_3)"/>
<path d="M3190.01 2881.56C3190.01 2907.59 3168.88 2928.9 3143.06 2928.9H570.777C544.958 2928.9 523.832 2907.59 523.832 2881.56L502.762 1469.84C505.244 1384.89 579.099 1354.35 623.869 1356.16C623.869 1356.16 2673.53 1300.7 3137.22 1288.16C3161.28 1287.5 3184.54 1296.85 3201.58 1313.99C3218.62 1331.13 3227.99 1354.59 3227.39 1378.85L3190.01 2881.56Z" fill="url(#paint3_linear_4_3)"/>
<g opacity="0.5">
<path d="M551.631 2207.38C549.761 2207.38 548.233 2205.88 548.206 2204L546.54 2089.51C546.513 2087.62 548.025 2086.07 549.915 2086.04C549.932 2086.04 549.948 2086.04 549.965 2086.04C551.835 2086.04 553.363 2087.54 553.39 2089.41L555.056 2203.9C555.083 2205.79 553.571 2207.35 551.681 2207.38C551.665 2207.38 551.648 2207.38 551.631 2207.38Z" fill="#BDD0FB"/>
<path d="M547.547 1926.82C545.677 1926.82 544.149 1925.32 544.122 1923.44L537.737 1484.96C537.867 1455.65 546.861 1432.27 564.464 1415.41C596.225 1384.98 645.71 1386.53 647.773 1386.6L1450.42 1364.88C1452.38 1364.78 1453.89 1366.32 1453.94 1368.21C1453.99 1370.1 1452.5 1371.68 1450.61 1371.73L647.764 1393.45C645.533 1393.38 598.888 1391.92 569.201 1420.36C552.993 1435.89 544.711 1457.61 544.587 1484.92L550.972 1923.34C550.999 1925.23 549.487 1926.79 547.597 1926.82C547.581 1926.82 547.564 1926.82 547.547 1926.82Z" fill="#BDD0FB"/>
</g>
<path d="M637.157 2803.24C639.85 2686.56 638.847 1653.33 632.209 1564.1C625.57 1474.86 763.38 1458.12 974.96 1448.08C1186.54 1438.04 2971.72 1398.28 3017.69 1394.52C3121.01 1386.07 3142.39 1541.81 3132.05 1879.9C3124.29 2133.91 3111.42 2552.34 3105.5 2744.77C3103.73 2802.06 3057.3 2847.52 3000.45 2847.68C2570.86 2848.87 924.381 2853.63 814.773 2856.92C688.638 2860.71 636.09 2849.51 637.157 2803.24Z" fill="#7D97F4"/>
<path d="M655.735 1611.7L684.352 2784.55C685.289 2822.96 713.404 2853.57 747.469 2853.27L1208.94 2849.19C1243.14 2848.88 1270.58 2817.54 1270.41 2778.97L1265.18 1587.55C1265 1547.59 1235.35 1515.66 1199.95 1517.31L715.1 1539.95C681.196 1541.54 654.802 1573.44 655.735 1611.7Z" fill="#BDD0FB"/>
<path d="M1328.52 1596.49L1351.81 2784.89C1352.57 2823.53 1380.85 2854.4 1415.12 2853.98L3056.02 2834.04C3090.65 2833.62 3118.17 2801.44 3117.29 2762.4L3090.54 1566.76C3089.68 1528.1 3061.28 1497.32 3027 1497.89L1389.55 1525.07C1355.1 1525.64 1327.75 1557.64 1328.52 1596.49Z" fill="#91B3FA"/>
<path d="M2983.16 2774.39H1473.08C1450.48 2774.39 1431.98 2755.89 1431.98 2733.29V2384.78C1431.98 2362.18 1450.48 2343.68 1473.08 2343.68H2983.16C3005.77 2343.68 3024.26 2362.18 3024.26 2384.78V2733.29C3024.26 2755.89 3005.77 2774.39 2983.16 2774.39Z" fill="#BDD0FB"/>
<path d="M1891.35 2283.4H1473.88C1451.27 2283.4 1432.78 2264.9 1432.78 2242.3V1625.24C1432.78 1602.64 1451.27 1584.14 1473.88 1584.14H1891.35C1913.96 1584.14 1932.45 1602.64 1932.45 1625.24V2242.3C1932.45 2264.9 1913.96 2283.4 1891.35 2283.4Z" fill="#BDD0FB"/>
<path d="M2446.66 2287.68H2029.19C2006.58 2287.68 1988.09 2269.19 1988.09 2246.58V1629.53C1988.09 1606.92 2006.58 1588.43 2029.19 1588.43H2446.66C2469.27 1588.43 2487.76 1606.92 2487.76 1629.53V2246.58C2487.76 2269.19 2469.27 2287.68 2446.66 2287.68Z" fill="#BDD0FB"/>
<path d="M2991.69 2293.58H2574.21C2551.61 2293.58 2533.11 2275.08 2533.11 2252.48V1635.42C2533.11 1612.82 2551.61 1594.32 2574.21 1594.32H2991.69C3014.29 1594.32 3032.79 1612.82 3032.79 1635.42V2252.48C3032.79 2275.08 3014.29 2293.58 2991.69 2293.58Z" fill="#BDD0FB"/>
<path d="M966.629 2089.01C1105.87 2089.01 1218.76 1976.13 1218.76 1836.88C1218.76 1697.64 1105.87 1584.76 966.629 1584.76C827.383 1584.76 714.502 1697.64 714.502 1836.88C714.502 1976.13 827.383 2089.01 966.629 2089.01Z" fill="#91B3FA"/>
<mask id="mask0_4_3" style="mask-type:luminance" maskUnits="userSpaceOnUse" x="714" y="1584" width="505" height="506">
<path d="M966.629 2089.01C1105.87 2089.01 1218.76 1976.13 1218.76 1836.88C1218.76 1697.64 1105.87 1584.76 966.629 1584.76C827.383 1584.76 714.502 1697.64 714.502 1836.88C714.502 1976.13 827.383 2089.01 966.629 2089.01Z" fill="white"/>
</mask>
<g mask="url(#mask0_4_3)">
<path d="M908.316 1768.93C893.316 1768.93 877.756 1770.84 871.884 1752.77C860.828 1718.74 879.4 1667.86 909.855 1649.34C920.042 1643.14 931.919 1640.43 943.609 1638.08C957.358 1635.32 969.236 1634.64 981.635 1641.3C993.071 1647.46 1004.18 1637.57 1016.03 1645.46C1026.11 1652.18 1033.83 1662.75 1039.22 1673.43C1046.25 1687.37 1049.9 1702.75 1052.97 1718.07C1053.66 1721.54 1054.33 1725.13 1053.56 1728.58C1052.91 1731.48 1051.29 1734.04 1049.68 1736.54C1037.39 1755.58 1021.02 1768.92 997.348 1768.93C997.346 1768.93 908.711 1768.93 908.316 1768.93Z" fill="url(#paint4_linear_4_3)"/>
<path d="M905.305 1709.03C905.305 1709.03 908.018 1714.71 890.354 1723.58C880.504 1728.53 861.344 1735.85 858.815 1757.22C857.51 1768.25 853.2 1795.49 842.704 1797.17C816.562 1801.37 781.276 1817.68 777.985 1849.4C774.208 1885.81 784.68 1904.92 803.215 1909.68C816.828 1913.18 820.278 1916.84 817.524 1931.23C814.883 1945.03 825.352 1994.55 848.189 2007.16C899.366 2035.44 943.943 1906.62 943.943 1906.62L954.417 1740.31L905.305 1709.03Z" fill="url(#paint5_linear_4_3)"/>
<path d="M1022.42 1694.48C1022.42 1694.48 1019.66 1700.5 1037.64 1709.91C1047.67 1715.15 1067.18 1722.9 1069.75 1745.54C1071.08 1757.23 1074.19 1773.65 1084.88 1775.44C1111.49 1779.88 1142.33 1805.81 1148.9 1856.16C1153.91 1894.58 1142.97 1935.8 1124.1 1940.84C1110.24 1944.55 1111.29 1937.2 1114.09 1952.45C1116.78 1967.07 1110.47 1961.42 1087.22 1974.79C1035.12 2004.74 983.087 1903.83 983.087 1903.83L972.424 1727.63L1022.42 1694.48Z" fill="url(#paint6_linear_4_3)"/>
<path d="M952.774 1879.15C952.774 1879.15 992.323 1868.96 1000.72 1881.56C1004.92 1902.51 1007.08 1923.32 1007.08 1923.32L961.511 1931.88L931.374 1924.94L924.204 1920.78L921.23 1891.1C921.232 1891.1 936.645 1882.15 952.774 1879.15Z" fill="url(#paint7_linear_4_3)"/>
<path d="M905.334 1773.45C905.334 1773.45 898.975 1754.37 889.436 1760.73C879.897 1767.09 903.752 1807.67 903.752 1807.67L905.334 1773.45Z" fill="url(#paint8_linear_4_3)"/>
<path d="M1000.72 1773.45C1000.72 1773.45 1000.72 1744.83 1016.62 1760.73C1032.52 1776.63 1000.72 1798.89 1000.72 1798.89V1773.45Z" fill="url(#paint9_linear_4_3)"/>
<path d="M1150.47 2033.32C1137.16 1969.07 1118.05 1918.85 1112.01 1915.94L1075.91 2005.25C1075.91 2005.25 1068.62 2031.86 1069.21 2064.9H1124.73C1141.37 2064.91 1153.85 2049.62 1150.47 2033.32Z" fill="url(#paint10_linear_4_3)"/>
<path d="M872.6 2064.91C874.264 2036.2 873.537 2018.13 873.537 2018.13L822.663 1935.53C822.663 1935.53 816.304 1960.85 809.944 2027.62C809.649 2030.73 809.367 2033.88 809.098 2037.09C807.841 2052.06 819.678 2064.9 834.705 2064.9L872.6 2064.91Z" fill="url(#paint11_linear_4_3)"/>
<path d="M943.025 2065.08H998.42L1013.44 1907.18C1013.44 1907.18 1000.72 1903.91 994.365 1881.65C988.005 1859.4 984.825 1814.83 984.825 1814.83L927.592 1827.53C927.592 1827.53 933.951 1888.12 921.233 1916.74L943.025 2065.08Z" fill="url(#paint12_linear_4_3)"/>
<path d="M1028.18 2084.96L1036.29 1965.41C978.263 2000.12 918.594 1998.44 858.076 1980.03L914.263 2089.01L1028.18 2084.96Z" fill="url(#paint13_linear_4_3)"/>
<path d="M967.337 2107.13C950.143 2024.2 921.232 1891.2 921.232 1891.2L911.693 1910.22L822.662 1935.74C827.021 1956.08 840.331 2012.07 853.713 2064.91L967.337 2107.13Z" fill="url(#paint14_linear_4_3)"/>
<path d="M1083.84 2064.91C1088.58 2039.5 1092.76 2019.67 1092.76 2019.67L1112.01 1915.94C1105.95 1909.89 1010.9 1896.85 1010.9 1896.85L1000.72 1881.66C1000.72 1881.66 982.429 2017.54 971.58 2108.51L1083.84 2064.91Z" fill="url(#paint15_linear_4_3)"/>
<path d="M898.974 1728.93C898.974 1728.93 895.794 1805.25 905.333 1817.96C914.872 1830.68 927.591 1859.3 949.848 1862.48C972.106 1865.66 1007.08 1802.07 1007.08 1798.89C1007.08 1795.71 1003.9 1713.04 1003.9 1713.04C1003.9 1713.04 937.13 1658.98 898.974 1728.93Z" fill="url(#paint16_linear_4_3)"/>
<path d="M886.256 1716.21C886.256 1716.21 873.537 1754.37 911.693 1741.65C949.849 1728.93 949.849 1728.93 949.849 1728.93C949.849 1728.93 988.005 1706.68 994.364 1716.21C1000.72 1725.75 1007.08 1749.24 1007.08 1749.24C1007.08 1749.24 1019.8 1716.21 1007.08 1697.14C994.364 1678.06 914.873 1662.16 886.256 1716.21Z" fill="url(#paint17_linear_4_3)"/>
</g>
<path d="M1198.81 2203.97H739.656C735.835 2203.97 732.709 2200.84 732.709 2197.02V2161.37C732.709 2157.55 735.835 2154.42 739.656 2154.42H1198.81C1202.63 2154.42 1205.76 2157.55 1205.76 2161.37V2197.02C1205.76 2200.84 1202.63 2203.97 1198.81 2203.97Z" fill="white"/>
<path d="M1211.81 2337.04H802.65C798.829 2337.04 795.703 2333.91 795.703 2330.09V2294.44C795.703 2290.62 798.829 2287.5 802.65 2287.5H1211.81C1215.63 2287.5 1218.76 2290.62 1218.76 2294.44V2330.09C1218.76 2333.91 1215.63 2337.04 1211.81 2337.04Z" fill="white"/>
<path d="M1211.81 2439.29H802.65C798.829 2439.29 795.703 2436.16 795.703 2432.34V2396.69C795.703 2392.87 798.829 2389.75 802.65 2389.75H1211.81C1215.63 2389.75 1218.76 2392.87 1218.76 2396.69V2432.34C1218.76 2436.16 1215.63 2439.29 1211.81 2439.29Z" fill="white"/>
<path d="M752.947 2337.3C767.275 2331.49 774.173 2315.16 768.356 2300.83C762.538 2286.5 746.207 2279.6 731.879 2285.42C717.551 2291.24 710.652 2307.57 716.47 2321.9C722.288 2336.22 738.619 2343.12 752.947 2337.3Z" fill="white"/>
<path d="M770.124 2418.98C772.58 2403.71 762.193 2389.34 746.925 2386.89C731.657 2384.43 717.289 2394.82 714.833 2410.09C712.378 2425.35 722.764 2439.72 738.032 2442.18C753.3 2444.63 767.668 2434.25 770.124 2418.98Z" fill="white"/>
<path d="M1211.81 2530.92H802.65C798.829 2530.92 795.703 2527.79 795.703 2523.97V2488.32C795.703 2484.5 798.829 2481.38 802.65 2481.38H1211.81C1215.63 2481.38 1218.76 2484.5 1218.76 2488.32V2523.97C1218.76 2527.79 1215.63 2530.92 1211.81 2530.92Z" fill="white"/>
<path d="M770.122 2510.61C772.578 2495.34 762.191 2480.97 746.923 2478.52C731.655 2476.06 717.287 2486.45 714.831 2501.72C712.375 2516.98 722.762 2531.35 738.03 2533.81C753.298 2536.26 767.666 2525.88 770.122 2510.61Z" fill="white"/>
<path d="M1211.81 2622.44H802.65C798.829 2622.44 795.703 2619.31 795.703 2615.49V2579.84C795.703 2576.02 798.829 2572.9 802.65 2572.9H1211.81C1215.63 2572.9 1218.76 2576.02 1218.76 2579.84V2615.49C1218.76 2619.31 1215.63 2622.44 1211.81 2622.44Z" fill="white"/>
<path d="M752.938 2623.57C767.266 2617.75 774.165 2601.42 768.347 2587.09C762.529 2572.76 746.198 2565.86 731.87 2571.68C717.542 2577.5 710.643 2593.83 716.461 2608.16C722.279 2622.48 738.61 2629.38 752.938 2623.57Z" fill="white"/>
<path d="M1211.81 2713.96H802.65C798.829 2713.96 795.703 2710.83 795.703 2707.01V2671.36C795.703 2667.54 798.829 2664.42 802.65 2664.42H1211.81C1215.63 2664.42 1218.76 2667.54 1218.76 2671.36V2707.01C1218.76 2710.83 1215.63 2713.96 1211.81 2713.96Z" fill="white"/>
<path d="M742.503 2717.19C757.967 2717.19 770.504 2704.65 770.504 2689.19C770.504 2673.72 757.967 2661.19 742.503 2661.19C727.038 2661.19 714.502 2673.72 714.502 2689.19C714.502 2704.65 727.038 2717.19 742.503 2717.19Z" fill="white"/>
<path d="M1378.63 1516.61L1369.01 1822.25C1367.96 1855.48 1394.61 1882.98 1427.86 1882.98H1777.13C1808.83 1882.98 1834.84 1857.88 1835.97 1826.2L1844.15 1512.58C1844.9 1483.54 1821.56 1459.6 1792.52 1459.63L1443.72 1459.92C1409.67 1456.29 1379.71 1482.38 1378.63 1516.61Z" fill="url(#paint18_linear_4_3)"/>
<path d="M1741.57 1823.34H1429.35C1420.21 1823.34 1411.9 1818.3 1407.66 1810.2C1403.43 1802.1 1404.04 1792.4 1409.26 1784.89L1474.2 1691.5C1478.23 1685.7 1484.57 1681.93 1491.59 1681.15C1498.58 1680.37 1505.62 1682.66 1510.83 1687.43L1535.55 1709.72C1535.88 1709.66 1535.97 1709.45 1536.02 1709.35L1595.7 1578.57C1599.51 1570.24 1607.55 1564.77 1616.7 1564.29C1625.89 1563.9 1634.42 1568.43 1639.06 1576.32L1762.66 1786.46C1767.17 1794.11 1767.23 1803.3 1762.82 1811.01C1758.41 1818.73 1750.46 1823.34 1741.57 1823.34ZM1494.74 1704.98L1493.75 1705.09L1428.81 1798.48C1428.7 1798.65 1428.58 1798.82 1428.76 1799.17C1428.95 1799.53 1429.15 1799.53 1429.35 1799.53H1741.57C1741.75 1799.53 1741.96 1799.53 1742.15 1799.19C1742.34 1798.86 1742.23 1798.68 1742.14 1798.53L1618.54 1588.39C1618.44 1588.23 1618.31 1588.13 1617.93 1588.07C1617.53 1588.1 1617.45 1588.28 1617.36 1588.46L1557.68 1719.23C1554.44 1726.34 1547.93 1731.51 1540.28 1733.06C1532.62 1734.61 1524.63 1732.39 1518.88 1727.11L1494.74 1704.98Z" fill="white"/>
<path d="M1737.33 1632.81C1706.02 1632.81 1680.54 1607.33 1680.54 1576.02C1680.54 1544.7 1706.02 1519.23 1737.33 1519.23C1768.64 1519.23 1794.12 1544.7 1794.12 1576.02C1794.12 1607.33 1768.64 1632.81 1737.33 1632.81ZM1737.33 1543.04C1719.15 1543.04 1704.35 1557.83 1704.35 1576.02C1704.35 1594.2 1719.15 1609 1737.33 1609C1755.51 1609 1770.31 1594.2 1770.31 1576.02C1770.31 1557.83 1755.51 1543.04 1737.33 1543.04Z" fill="white"/>
<path d="M2061.86 1136.38V1385.06C2061.86 1414.61 2085.08 1438.94 2114.59 1440.33L2425.58 1454.94C2457.12 1456.42 2483.5 1431.25 2483.5 1399.67V1136.38C2483.5 1105.83 2458.73 1081.06 2428.17 1081.06H2117.19C2086.63 1081.06 2061.86 1105.83 2061.86 1136.38Z" fill="url(#paint19_linear_4_3)"/>
<path d="M2174.52 1393.94C2170.5 1393.94 2167.11 1393.89 2164.42 1393.84C2159.82 1393.75 2156.06 1390.37 2155.47 1385.8C2154.88 1381.2 2157.69 1376.96 2162.16 1375.7C2186.04 1369.01 2212.08 1357.63 2231.25 1348.42C2139.81 1340.96 2121.55 1294 2118.02 1272.52C2109.12 1218.34 2156.14 1157.04 2222.84 1135.86C2290.9 1114.27 2359.85 1122.05 2398.51 1155.69C2419.05 1173.57 2441.34 1207.81 2430.83 1269.43C2411.18 1384.7 2231.4 1393.94 2174.52 1393.94ZM2164.76 1377.24C2164.76 1377.24 2164.78 1377.24 2164.78 1377.24C2164.78 1377.24 2164.77 1377.24 2164.76 1377.24ZM2296.88 1332.16L2267.91 1348.32C2266.38 1349.16 2240.88 1363.31 2209.87 1376.28C2280.47 1372.02 2399.91 1352.08 2414.47 1266.64C2421.86 1223.27 2412.83 1190.15 2387.62 1168.21C2348.51 1134.17 2279.21 1135.39 2227.86 1151.68C2169.71 1170.14 2126.91 1224.24 2134.4 1269.82C2141.2 1311.2 2188.32 1334.35 2263.72 1332.77L2296.88 1332.16Z" fill="white"/>
<path d="M2375.16 1637.25V1886.58C2375.16 1916.2 2398.43 1940.6 2428.02 1941.99L2739.82 1956.64C2771.44 1958.13 2797.89 1932.89 2797.89 1901.23V1637.25C2797.89 1606.61 2773.06 1581.78 2742.42 1581.78H2430.63C2399.99 1581.78 2375.16 1606.61 2375.16 1637.25Z" fill="url(#paint20_linear_4_3)"/>
<path d="M2580.9 1884.07C2517.58 1884.07 2466.07 1832.56 2466.07 1769.24C2466.07 1705.92 2517.58 1654.41 2580.9 1654.41C2644.22 1654.41 2695.73 1705.92 2695.73 1769.24C2695.73 1832.56 2644.22 1884.07 2580.9 1884.07ZM2580.9 1673.65C2528.19 1673.65 2485.31 1716.53 2485.31 1769.24C2485.31 1821.95 2528.19 1864.83 2580.9 1864.83C2633.61 1864.83 2676.49 1821.95 2676.49 1769.24C2676.49 1716.53 2633.61 1673.65 2580.9 1673.65Z" fill="white"/>
<path fill-rule="evenodd" clip-rule="evenodd" d="M2544.93 1813.46V1730.91C2544.93 1722.09 2554.53 1716.62 2562.12 1721.12L2631.68 1762.4C2639.11 1766.81 2639.11 1777.56 2631.68 1781.97L2562.12 1823.25C2554.53 1827.75 2544.93 1822.28 2544.93 1813.46Z" fill="white"/>
<path d="M1950.9 1833.78H1911.3V1675.97C1911.3 1613.99 1957.7 1561.61 2019.23 1554.13L2100.2 1544.3C2135.04 1540.06 2170.11 1550.98 2196.39 1574.26C2222.67 1597.54 2237.74 1631.03 2237.74 1666.13V1803.9H2198.14V1666.13C2198.14 1642.35 2187.93 1619.67 2170.13 1603.9C2152.33 1588.13 2128.58 1580.73 2104.97 1583.61L2024.01 1593.44C1982.33 1598.51 1950.9 1633.99 1950.9 1675.97L1950.9 1833.78Z" fill="url(#paint21_linear_4_3)"/>
<path d="M1899.6 1798.35L2246.72 1779.12C2260.82 1778.34 2272.68 1789.56 2272.68 1803.68V2078.68C2272.68 2092.26 2261.67 2103.28 2248.08 2103.28H1909.3C1896.02 2103.28 1885.14 2092.74 1884.71 2079.48L1876.37 1823.71C1875.93 1810.35 1886.25 1799.09 1899.6 1798.35Z" fill="url(#paint22_linear_4_3)"/>
<path d="M2131.11 2024.5L2110.1 1964.09C2107.57 1956.83 2109.3 1948.71 2114.7 1943.24C2125.46 1932.33 2131.88 1917.12 2131.12 1900.41C2129.78 1870.94 2105.71 1847.05 2076.24 1845.92C2043.62 1844.67 2016.78 1870.74 2016.78 1903.08C2016.78 1921.02 2025.04 1937.02 2037.97 1947.51C2044.67 1952.95 2047.43 1961.88 2044.59 1970.03L2025.65 2024.5C2021.04 2037.74 2030.88 2051.58 2044.9 2051.58H2111.86C2125.88 2051.58 2135.72 2037.74 2131.11 2024.5Z" fill="url(#paint23_linear_4_3)"/>
<path d="M2602.83 2814.93H2571.61V3152.47H2602.83V2814.93Z" fill="#7D97F4"/>
<path d="M2723.91 3158.98H2450.53V3144.99C2450.53 3141.5 2453.36 3138.66 2456.86 3138.66H2717.09C2720.85 3138.66 2723.91 3141.72 2723.91 3145.48L2723.91 3158.98Z" fill="#7D97F4"/>
<path d="M2775.6 2802.48C2775.6 2822.1 2759.55 2838.15 2739.93 2838.15H2445.99C2426.37 2838.15 2410.31 2822.1 2410.31 2802.48V2770.22C2410.31 2750.6 2426.37 2734.55 2445.99 2734.55H2739.93C2759.55 2734.55 2775.6 2750.61 2775.6 2770.22V2802.48Z" fill="#7D97F4"/>
<path d="M2413.37 3092.67C2413.37 3092.67 2324.24 3156.92 2339.72 3200.08C2339.72 3200.08 2437.24 3158 2449.02 3124.86C2460.8 3091.72 2447.03 3077.08 2447.03 3077.08L2413.37 3092.67Z" fill="url(#paint24_linear_4_3)"/>
<path d="M2426.77 3038.83L2441.34 3080.97C2443.54 3087.32 2441.34 3094.56 2435.65 3098.16C2432.8 3099.96 2428.91 3101.62 2423.59 3102.83C2416.08 3104.53 2408.33 3101.06 2404.72 3094.26L2387.29 3061.44L2426.77 3038.83Z" fill="url(#paint25_linear_4_3)"/>
<path d="M2568.59 2659.61C2568.59 2659.61 2385.53 2691.34 2307 2763.88C2228.47 2836.43 2379.08 3067.83 2379.08 3067.83C2379.08 3067.83 2403.75 3067.68 2433.65 3042.05C2433.65 3042.05 2344.35 2868.01 2421.31 2817.26C2507.84 2760.2 2607.55 2747.35 2607.55 2747.35L2570.36 2665.21L2568.59 2659.61Z" fill="url(#paint26_linear_4_3)"/>
<path d="M2355.21 3176.21C2374.81 3167.13 2430.31 3128.29 2439.66 3126.57C2449.02 3124.86 2465.25 3135.86 2465.25 3135.86C2465.25 3135.86 2469.19 3142.95 2464.97 3155.34C2451.95 3171.1 2423.02 3201.14 2384.14 3212.34C2355.54 3220.58 2335.53 3212.9 2323.07 3203.91C2329.93 3193.47 2342.15 3182.25 2355.21 3176.21Z" fill="url(#paint27_linear_4_3)"/>
<path d="M2384.14 3212.34C2423.02 3201.14 2451.94 3171.1 2464.97 3155.33C2462.12 3163.7 2455.54 3174.48 2441.48 3187.11C2406.62 3218.45 2340.04 3229.74 2325.86 3227.56C2314.5 3225.82 2315.57 3215.33 2323.07 3203.91C2335.53 3212.9 2355.54 3220.58 2384.14 3212.34Z" fill="url(#paint28_linear_4_3)"/>
<path d="M2481.87 3108.43C2481.65 3113.83 2470.61 3132.36 2464.16 3142.75C2461.09 3147.69 2455.72 3150.7 2449.91 3150.72C2446.22 3150.73 2441.98 3150.41 2438.13 3149.3C2432.36 3147.64 2429.11 3141.49 2430.8 3135.72L2443.41 3092.67L2481.87 3108.43Z" fill="url(#paint29_linear_4_3)"/>
<path d="M2744.81 2604.66C2744.81 2604.66 2785.47 2713.37 2744.81 2746.43C2704.15 2779.49 2607.17 2816.71 2585.5 2882.56C2563.83 2948.41 2527.07 3076.38 2477.86 3121.7C2477.86 3121.7 2443.29 3118.35 2430.36 3104.57C2430.36 3104.57 2458.38 2913.53 2476.86 2864.51C2492.87 2822.06 2516.45 2760.79 2561.64 2726.54C2574.58 2716.74 2572.32 2701.21 2566.33 2686.13L2555.4 2658.66L2744.81 2604.66Z" fill="url(#paint30_linear_4_3)"/>
<path d="M2320.79 2519.46C2388.96 2523.57 2367.72 2414.66 2366.49 2410.33L2469.95 2483.41C2469.95 2483.41 2464.48 2541.65 2378.45 2572.2C2356.69 2579.93 2336.8 2580.27 2319.21 2576.49C2326.71 2554.62 2325.19 2535 2320.79 2519.46Z" fill="url(#paint31_linear_4_3)"/>
<path d="M2188.98 2486.68C2214.38 2469.01 2243.16 2486.68 2243.16 2486.68C2277.13 2508.89 2302.25 2518.34 2320.79 2519.46C2325.19 2535 2326.71 2554.62 2319.21 2576.49C2281.16 2568.31 2253.94 2540.77 2242.11 2526.64C2237.86 2521.56 2230.31 2520.67 2225.11 2524.78C2219.82 2528.96 2214.68 2534.68 2215.61 2540.7C2217.45 2552.57 2203.67 2556.34 2202.63 2552.04C2201.6 2547.73 2207.35 2522.21 2207.35 2522.21C2207.35 2522.21 2179.8 2549.92 2169.04 2560.56C2158.29 2571.21 2144.76 2560.56 2144.76 2560.56C2144.76 2560.56 2163.58 2504.35 2188.98 2486.68Z" fill="url(#paint32_linear_4_3)"/>
<path d="M2638.65 2242.14C2638.65 2242.14 2539.48 2202.43 2354.91 2354.81C2354.91 2354.81 2339.5 2386.72 2356.31 2415.12C2373.13 2443.52 2533.38 2581.92 2555.4 2658.67C2555.4 2658.67 2650.87 2689.69 2749.6 2616.13C2749.6 2616.13 2740.89 2402.53 2638.65 2242.14Z" fill="url(#paint33_linear_4_3)"/>
<path d="M2715.43 2495.62C2726.95 2448.73 2610.33 2344.2 2610.33 2344.2L2638.65 2242.14C2638.65 2242.14 2890.46 2409.78 2826.29 2544.58C2817.09 2563.91 2804.87 2577.44 2790.71 2586.49C2770.43 2531.91 2738.12 2506.88 2715.43 2495.62Z" fill="url(#paint34_linear_4_3)"/>
<path d="M2715.51 2488.79C2716.75 2488.79 2717.88 2487.95 2718.19 2486.7C2729.96 2438.76 2617.06 2336.88 2612.25 2332.57C2611.12 2331.56 2609.38 2331.65 2608.36 2332.78C2607.34 2333.91 2607.44 2335.66 2608.57 2336.67C2609.72 2337.71 2723.83 2440.63 2712.84 2485.38C2712.47 2486.86 2713.38 2488.35 2714.86 2488.71C2715.07 2488.77 2715.3 2488.79 2715.51 2488.79Z" fill="url(#paint35_linear_4_3)"/>
<path d="M2538.8 2491.58C2538.8 2491.58 2677.07 2545.26 2710.81 2504.89C2713.1 2502.15 2714.6 2499.03 2715.43 2495.62C2738.12 2506.88 2770.43 2531.91 2790.71 2586.49C2717.99 2632.96 2593.7 2560.64 2560.09 2539.32C2554.56 2535.82 2547.93 2534.59 2541.51 2535.92C2528.55 2538.6 2506.16 2542.56 2494.08 2540.7C2476.41 2537.97 2451.04 2600.3 2422.4 2581.07C2422.4 2581.07 2446.92 2472.74 2538.8 2491.58Z" fill="url(#paint36_linear_4_3)"/>
<path d="M2405.95 2291.05C2387.12 2306.76 2378.08 2319.9 2380.18 2340.9C2414.85 2359.46 2458.13 2364.3 2506.08 2361.69C2531.34 2329.8 2553.65 2284.45 2550.31 2244.84C2540.9 2233.39 2500.56 2231.23 2473.51 2242.14L2405.95 2291.05Z" fill="url(#paint37_linear_4_3)"/>
<path d="M2430.36 2188.6L2491.42 2265.89C2496.26 2271.77 2483.66 2305.16 2480.3 2312C2473.53 2325.82 2481.59 2323.22 2445.93 2320.44C2435.32 2319.61 2415.46 2310.71 2410.83 2301.14L2376.69 2230.57L2430.36 2188.6Z" fill="url(#paint38_linear_4_3)"/>
<path d="M2336.37 2119.77C2335.88 2121.68 2347.81 2251.05 2347.81 2251.05L2421.54 2242.67L2428.44 2118.37C2428.44 2118.37 2344.59 2087.92 2336.37 2119.77Z" fill="url(#paint39_linear_4_3)"/>
<path d="M2409.24 2144.12L2410.73 2209.84C2410.75 2210.69 2410.66 2211.51 2410.45 2212.32C2409.17 2217.32 2403.49 2234.19 2386.58 2227.34C2371.24 2221.11 2357.15 2215.66 2346.79 2217.63C2342.13 2218.51 2338.91 2222.77 2339.35 2227.49C2340.44 2239.25 2343.38 2265.69 2349.44 2288.27C2350.67 2292.85 2355.23 2295.69 2359.9 2294.87C2373.98 2292.39 2403.53 2286.32 2426.16 2275.88C2429.23 2274.46 2431.29 2271.52 2431.51 2268.15C2432.62 2251.73 2436.16 2201.81 2439.3 2188.05C2442.24 2175.14 2459.16 2169.06 2466.44 2167.02C2468.83 2166.35 2470.82 2164.74 2471.98 2162.55C2476.1 2154.82 2482.61 2136.58 2459.85 2126.31C2455.08 2124.17 2453.07 2118.55 2455.36 2113.86C2459.92 2104.51 2463.02 2089.82 2445.67 2079.64C2428.02 2069.28 2413.08 2077.66 2404.71 2084.87C2401.33 2087.79 2396.42 2087.75 2392.93 2084.97C2390.94 2083.39 2388.23 2082.64 2384.68 2084.35C2379.89 2086.65 2374.16 2084.09 2372.37 2079.09C2368.93 2069.48 2360.94 2058.72 2342.43 2059.84C2309.59 2061.82 2302.02 2097.14 2308.22 2119.01C2314.43 2140.88 2349.92 2136.7 2368.44 2128.05C2382.52 2121.48 2398.72 2131.77 2405.68 2137.08C2407.88 2138.76 2409.18 2141.35 2409.24 2144.12Z" fill="url(#paint40_linear_4_3)"/>
<path d="M2439.6 2211.98C2439.6 2211.98 2430.42 2173.42 2445.04 2165.82C2459.65 2158.23 2479.3 2165.16 2471.91 2191.56C2462.71 2224.39 2439.6 2211.98 2439.6 2211.98Z" fill="url(#paint41_linear_4_3)"/>
<path d="M2467.97 2597.44C2467.75 2597.45 2467.53 2597.46 2467.3 2597.45L2177.21 2597.14C2170.04 2597.13 2164.23 2591.31 2164.24 2584.14C2164.25 2576.97 2170.09 2571.04 2177.24 2571.17L2467.33 2571.49C2474.5 2571.49 2480.31 2577.31 2480.3 2584.48C2480.3 2591.43 2474.83 2597.1 2467.97 2597.44Z" fill="url(#paint42_linear_4_3)"/>
<path d="M1916.43 2334.05H2158.02C2175.84 2334.05 2192.07 2344.34 2199.67 2360.46L2311.36 2597.28H2011.12C1999.64 2597.28 1989.32 2590.27 1985.1 2579.58L1898.49 2360.44C1893.49 2347.78 1902.82 2334.05 1916.43 2334.05Z" fill="url(#paint43_linear_4_3)"/>
<path d="M2140.87 2544.39L2105.45 2469.45C2122.72 2455.14 2128.83 2430.45 2118.8 2409.24C2106.93 2384.13 2076.95 2373.39 2051.84 2385.26C2026.72 2397.13 2015.99 2427.11 2027.86 2452.22C2038.36 2474.44 2063.03 2485.39 2085.97 2479.41L2096.09 2500.83L2084.65 2506.23C2080.36 2508.26 2078.53 2513.38 2080.56 2517.67L2080.69 2517.95C2082.72 2522.24 2087.84 2524.08 2092.13 2522.05L2103.57 2516.64L2112.91 2536.41L2095.26 2544.75C2090.97 2546.78 2089.14 2551.9 2091.17 2556.19L2091.3 2556.48C2093.33 2560.77 2098.45 2562.6 2102.74 2560.57L2120.39 2552.23L2121.1 2553.73C2123.66 2559.14 2130.11 2561.45 2135.52 2558.9L2135.71 2558.81C2141.11 2556.25 2143.43 2549.8 2140.87 2544.39ZM2045.27 2443.99C2037.95 2428.5 2044.58 2410 2060.07 2402.68C2075.56 2395.35 2094.06 2401.98 2101.38 2417.47C2108.71 2432.96 2102.08 2451.46 2086.59 2458.78C2071.09 2466.11 2052.6 2459.49 2045.27 2443.99Z" fill="url(#paint44_linear_4_3)"/>
<path d="M1955.6 3219.63C1953.99 3219.63 1952.36 3219.32 1950.79 3218.67C1944.6 3216.09 1941.75 3209.15 1944.41 3203.16L2200.07 2627.77C2202.73 2621.79 2209.9 2619.02 2216.09 2621.59C2222.27 2624.17 2225.13 2631.11 2222.47 2637.1L1966.8 3212.49C1964.82 3216.96 1960.32 3219.63 1955.6 3219.63Z" fill="#7D97F4"/>
<path d="M2243.61 3219.63C2238.89 3219.63 2234.39 3216.96 2232.41 3212.49L1976.75 2637.1C1974.09 2631.11 1976.94 2624.17 1983.13 2621.59C1989.31 2619.02 1996.48 2621.78 1999.14 2627.77L2254.81 3203.16C2257.47 3209.15 2254.61 3216.09 2248.43 3218.67C2246.86 3219.32 2245.22 3219.63 2243.61 3219.63Z" fill="#7D97F4"/>
<path d="M2746.99 3219.63C2745.38 3219.63 2743.75 3219.32 2742.17 3218.67C2735.99 3216.09 2733.13 3209.15 2735.79 3203.16L2991.46 2627.77C2994.12 2621.79 3001.28 2619.02 3007.47 2621.59C3013.65 2624.17 3016.51 2631.11 3013.85 2637.1L2758.19 3212.49C2756.21 3216.96 2751.71 3219.63 2746.99 3219.63Z" fill="#7D97F4"/>
<path d="M3035 3219.63C3030.28 3219.63 3025.78 3216.96 3023.8 3212.49L2768.13 2637.1C2765.47 2631.11 2768.33 2624.17 2774.51 2621.59C2780.69 2619.02 2787.87 2621.78 2790.53 2627.77L3046.19 3203.16C3048.85 3209.15 3045.99 3216.09 3039.81 3218.67C3038.24 3219.32 3036.61 3219.63 3035 3219.63Z" fill="#7D97F4"/>
<path d="M3064.99 2610.01C3065.64 2606.23 3064.75 2602.33 3062.57 2599.36C3060.38 2596.4 3057.13 2594.68 3053.69 2594.68H1890.61C1886.1 2594.68 1881.89 2597.26 1879.46 2601.52C1877.03 2605.78 1876.7 2611.13 1878.6 2615.72L1891.2 2646.26C1894.09 2653.25 1900.34 2657.73 1907.22 2657.73H3045.71C3052.11 2657.73 3057.62 2652.65 3058.83 2645.61L3064.99 2610.01Z" fill="#7D97F4"/>
</g>
<defs>
<linearGradient id="paint0_linear_4_3" x1="3396.62" y1="3591.51" x2="1345.36" y2="1377.46" gradientUnits="userSpaceOnUse">
<stop stop-color="#DAE3FE"/>
<stop offset="1" stop-color="#E9EFFD"/>
</linearGradient>
<linearGradient id="paint1_linear_4_3" x1="1182.17" y1="1406.97" x2="325.933" y2="3288.41" gradientUnits="userSpaceOnUse">
<stop stop-color="#FDF53F"/>
<stop offset="1" stop-color="#D93C65"/>
</linearGradient>
<linearGradient id="paint2_linear_4_3" x1="1601.36" y1="2857.81" x2="2238.63" y2="946.007" gradientUnits="userSpaceOnUse">
<stop stop-color="#09005D"/>
<stop offset="1" stop-color="#1A0F91"/>
</linearGradient>
<linearGradient id="paint3_linear_4_3" x1="3495.09" y1="304.667" x2="967.473" y2="3154.23" gradientUnits="userSpaceOnUse">
<stop stop-color="#4F52FF"/>
<stop offset="1" stop-color="#4042E2"/>
</linearGradient>
<linearGradient id="paint4_linear_4_3" x1="968.045" y1="1617.76" x2="942.152" y2="2036.03" gradientUnits="userSpaceOnUse">
<stop stop-color="#09005D"/>
<stop offset="1" stop-color="#1A0F91"/>
</linearGradient>
<linearGradient id="paint5_linear_4_3" x1="877.444" y1="1612.16" x2="851.551" y2="2030.42" gradientUnits="userSpaceOnUse">
<stop stop-color="#09005D"/>
<stop offset="1" stop-color="#1A0F91"/>
</linearGradient>
<linearGradient id="paint6_linear_4_3" x1="1072.38" y1="1624.22" x2="1046.48" y2="2042.49" gradientUnits="userSpaceOnUse">
<stop stop-color="#09005D"/>
<stop offset="1" stop-color="#1A0F91"/>
</linearGradient>
<linearGradient id="paint7_linear_4_3" x1="1021.74" y1="1840.03" x2="985.656" y2="1882.13" gradientUnits="userSpaceOnUse">
<stop stop-color="#CB236D"/>
<stop offset="1" stop-color="#4C246D"/>
</linearGradient>
<linearGradient id="paint8_linear_4_3" x1="900.891" y1="1768.84" x2="969.003" y2="1551.36" gradientUnits="userSpaceOnUse">
<stop stop-color="#FEBBBA"/>
<stop offset="1" stop-color="#FF928E"/>
</linearGradient>
<linearGradient id="paint9_linear_4_3" x1="1001.48" y1="1800.35" x2="1069.59" y2="1582.86" gradientUnits="userSpaceOnUse">
<stop stop-color="#FEBBBA"/>
<stop offset="1" stop-color="#FF928E"/>
</linearGradient>
<linearGradient id="paint10_linear_4_3" x1="1670.27" y1="1430.89" x2="1386" y2="1722.02" gradientUnits="userSpaceOnUse">
<stop stop-color="#FF928E"/>
<stop offset="1" stop-color="#FE7062"/>
</linearGradient>
<linearGradient id="paint11_linear_4_3" x1="1533.74" y1="1297.58" x2="1249.47" y2="1588.7" gradientUnits="userSpaceOnUse">
<stop stop-color="#FF928E"/>
<stop offset="1" stop-color="#FE7062"/>
</linearGradient>
<linearGradient id="paint12_linear_4_3" x1="955.821" y1="1994.39" x2="987.223" y2="1784.23" gradientUnits="userSpaceOnUse">
<stop stop-color="#FEBBBA"/>
<stop offset="1" stop-color="#FF928E"/>
</linearGradient>
<linearGradient id="paint13_linear_4_3" x1="940.105" y1="2052.72" x2="957.469" y2="1936.52" gradientUnits="userSpaceOnUse">
<stop stop-color="#09005D"/>
<stop offset="1" stop-color="#1A0F91"/>
</linearGradient>
<linearGradient id="paint14_linear_4_3" x1="1568.59" y1="1331.61" x2="1284.32" y2="1622.73" gradientUnits="userSpaceOnUse">
<stop stop-color="#FF928E"/>
<stop offset="1" stop-color="#FE7062"/>
</linearGradient>
<linearGradient id="paint15_linear_4_3" x1="1619.92" y1="1381.73" x2="1335.65" y2="1672.85" gradientUnits="userSpaceOnUse">
<stop stop-color="#FF928E"/>
<stop offset="1" stop-color="#FE7062"/>
</linearGradient>
<linearGradient id="paint16_linear_4_3" x1="946.986" y1="1783.28" x2="1015.1" y2="1565.79" gradientUnits="userSpaceOnUse">
<stop stop-color="#FEBBBA"/>
<stop offset="1" stop-color="#FF928E"/>
</linearGradient>
<linearGradient id="paint17_linear_4_3" x1="877.394" y1="1607.25" x2="1153.08" y2="2046.69" gradientUnits="userSpaceOnUse">
<stop stop-color="#09005D"/>
<stop offset="1" stop-color="#1A0F91"/>
</linearGradient>
<linearGradient id="paint18_linear_4_3" x1="1404.08" y1="2053.33" x2="2431.57" y2="121.661" gradientUnits="userSpaceOnUse">
<stop stop-color="#FEBBBA"/>
<stop offset="1" stop-color="#FF928E"/>
</linearGradient>
<linearGradient id="paint19_linear_4_3" x1="1755.53" y1="2240.27" x2="2783.02" y2="308.601" gradientUnits="userSpaceOnUse">
<stop stop-color="#FEBBBA"/>
<stop offset="1" stop-color="#FF928E"/>
</linearGradient>
<linearGradient id="paint20_linear_4_3" x1="2207.97" y1="2480.93" x2="3235.45" y2="549.26" gradientUnits="userSpaceOnUse">
<stop stop-color="#FEBBBA"/>
<stop offset="1" stop-color="#FF928E"/>
</linearGradient>
<linearGradient id="paint21_linear_4_3" x1="2838.04" y1="920.94" x2="2413.35" y2="1362.76" gradientUnits="userSpaceOnUse">
<stop stop-color="#FF928E"/>
<stop offset="1" stop-color="#FE7062"/>
</linearGradient>
<linearGradient id="paint22_linear_4_3" x1="2955.72" y1="1034.06" x2="2531.03" y2="1475.88" gradientUnits="userSpaceOnUse">
<stop stop-color="#FF928E"/>
<stop offset="1" stop-color="#FE7062"/>
</linearGradient>
<linearGradient id="paint23_linear_4_3" x1="1938.68" y1="2125.37" x2="1510.36" y2="2645.18" gradientUnits="userSpaceOnUse">
<stop stop-color="#E1473D"/>
<stop offset="1" stop-color="#E9605A"/>
</linearGradient>
<linearGradient id="paint24_linear_4_3" x1="2337.4" y1="3027.92" x2="2392.5" y2="3136.28" gradientUnits="userSpaceOnUse">
<stop stop-color="#09005D"/>
<stop offset="1" stop-color="#1A0F91"/>
</linearGradient>
<linearGradient id="paint25_linear_4_3" x1="2442.18" y1="3071.04" x2="2387.29" y2="3071.04" gradientUnits="userSpaceOnUse">
<stop stop-color="#FEBBBA"/>
<stop offset="1" stop-color="#FF928E"/>
</linearGradient>
<linearGradient id="paint26_linear_4_3" x1="2518.13" y1="2925.81" x2="2284.88" y2="2598.89" gradientUnits="userSpaceOnUse">
<stop stop-color="#09005D"/>
<stop offset="1" stop-color="#1A0F91"/>
</linearGradient>
<linearGradient id="paint27_linear_4_3" x1="2369.38" y1="3137.48" x2="2560.39" y2="3387.26" gradientUnits="userSpaceOnUse">
<stop stop-color="#09005D"/>
<stop offset="1" stop-color="#1A0F91"/>
</linearGradient>
<linearGradient id="paint28_linear_4_3" x1="2464.97" y1="3191.58" x2="2317.38" y2="3191.58" gradientUnits="userSpaceOnUse">
<stop stop-color="#53D8FF"/>
<stop offset="1" stop-color="#3840F7"/>
</linearGradient>
<linearGradient id="paint29_linear_4_3" x1="2481.87" y1="3121.7" x2="2430.36" y2="3121.7" gradientUnits="userSpaceOnUse">
<stop stop-color="#FEBBBA"/>
<stop offset="1" stop-color="#FF928E"/>
</linearGradient>
<linearGradient id="paint30_linear_4_3" x1="2602.21" y1="3088.72" x2="2589.35" y2="2651.6" gradientUnits="userSpaceOnUse">
<stop stop-color="#09005D"/>
<stop offset="1" stop-color="#1A0F91"/>
</linearGradient>
<linearGradient id="paint31_linear_4_3" x1="642.288" y1="765.042" x2="116.372" y2="235.342" gradientUnits="userSpaceOnUse">
<stop stop-color="#09005D"/>
<stop offset="1" stop-color="#1A0F91"/>
</linearGradient>
<linearGradient id="paint32_linear_4_3" x1="2324.46" y1="2527.66" x2="2144.77" y2="2527.66" gradientUnits="userSpaceOnUse">
<stop stop-color="#FEBBBA"/>
<stop offset="1" stop-color="#FF928E"/>
</linearGradient>
<linearGradient id="paint33_linear_4_3" x1="2407.35" y1="2312.45" x2="2811.4" y2="2606.31" gradientUnits="userSpaceOnUse">
<stop stop-color="#09005D"/>
<stop offset="1" stop-color="#1A0F91"/>
</linearGradient>
<linearGradient id="paint34_linear_4_3" x1="2465.29" y1="2232.78" x2="2869.35" y2="2526.64" gradientUnits="userSpaceOnUse">
<stop stop-color="#09005D"/>
<stop offset="1" stop-color="#1A0F91"/>
</linearGradient>
<linearGradient id="paint35_linear_4_3" x1="3317.89" y1="1151.34" x2="2839" y2="2071.91" gradientUnits="userSpaceOnUse">
<stop stop-color="#09005D"/>
<stop offset="1" stop-color="#1A0F91"/>
</linearGradient>
<linearGradient id="paint36_linear_4_3" x1="2577.23" y1="2529.82" x2="3033.7" y2="3323.03" gradientUnits="userSpaceOnUse">
<stop stop-color="#FEBBBA"/>
<stop offset="1" stop-color="#FF928E"/>
</linearGradient>
<linearGradient id="paint37_linear_4_3" x1="3652.87" y1="21.8544" x2="2788.27" y2="1683.92" gradientUnits="userSpaceOnUse">
<stop stop-color="#09005D"/>
<stop offset="1" stop-color="#1A0F91"/>
</linearGradient>
<linearGradient id="paint38_linear_4_3" x1="2492.51" y1="2255.63" x2="2376.7" y2="2255.63" gradientUnits="userSpaceOnUse">
<stop stop-color="#FEBBBA"/>
<stop offset="1" stop-color="#FF928E"/>
</linearGradient>
<linearGradient id="paint39_linear_4_3" x1="2364.47" y1="2127.92" x2="2459.52" y2="2356.1" gradientUnits="userSpaceOnUse">
<stop stop-color="#FEBBBA"/>
<stop offset="1" stop-color="#FF928E"/>
</linearGradient>
<linearGradient id="paint40_linear_4_3" x1="2462.81" y1="2202.42" x2="2290.41" y2="2157.93" gradientUnits="userSpaceOnUse">
<stop stop-color="#09005D"/>
<stop offset="1" stop-color="#1A0F91"/>
</linearGradient>
<linearGradient id="paint41_linear_4_3" x1="2536.83" y1="2333.67" x2="2451.72" y2="2185.03" gradientUnits="userSpaceOnUse">
<stop stop-color="#FEBBBA"/>
<stop offset="1" stop-color="#FF928E"/>
</linearGradient>
<linearGradient id="paint42_linear_4_3" x1="2517.19" y1="2520.36" x2="2286.91" y2="2595.89" gradientUnits="userSpaceOnUse">
<stop stop-color="#09005D"/>
<stop offset="1" stop-color="#1A0F91"/>
</linearGradient>
<linearGradient id="paint43_linear_4_3" x1="2200.85" y1="2369.37" x2="2035.01" y2="2544.66" gradientUnits="userSpaceOnUse">
<stop stop-color="#09005D"/>
<stop offset="1" stop-color="#1A0F91"/>
</linearGradient>
<linearGradient id="paint44_linear_4_3" x1="2095.93" y1="2350.66" x2="2064.23" y2="2676.15" gradientUnits="userSpaceOnUse">
<stop stop-color="#FF928E"/>
<stop offset="1" stop-color="#FE7062"/>
</linearGradient>
<clipPath id="clip0_4_3">
<rect width="3710" height="3710" fill="white"/>
</clipPath>
</defs>
</svg>
